<svg xmlns="http://www.w3.org/2000/svg" viewBox="0 0 1349.09 1080"><defs><style>.cls-1{fill:#cdf494;}</style></defs><title>cover-bg</title><g id="Covering_Letter" data-name="Covering Letter"><g id="_1920_Green" data-name="1920 Green"><path class="cls-1" d="M274,67.66a24.88,24.88,0,0,0,6.36,35.25c21.86,14.55,58.57,26.21,113.31,33.8,20.47,2.84,35.39-19.07,25.07-37C364.84,6.14,314.49,11.47,274,67.66Z"/><path class="cls-1" d="M576.7,986.72h0A38.28,38.28,0,0,0,525,1003.8q-4.85,9.78-9.52,18.9a38.23,38.23,0,0,0,23.14,54.1c26.41,7.79,46.75-5.26,57.65-46.11A38.29,38.29,0,0,0,576.7,986.72Z"/><path class="cls-1" d="M1003.48,990.84c-129.23-33.91-205.67-79.28-151-130.86a7.13,7.13,0,0,0-7.72-11.73c-225.61,97-231.75,179-157.82,231.75h461.35a466.66,466.66,0,0,1-57.65-42.82A215.54,215.54,0,0,0,1003.48,990.84Z"/><path class="cls-1" d="M413.27,957.53c-11.17-15.3-35.25-9.17-37.76,9.62-4.38,32.82-6.95,64-7.46,91.48A21,21,0,0,0,389,1080H472a21,21,0,0,0,18.2-10.55c.11-.2.23-.4.35-.6a21,21,0,0,0-4-25.88C463.74,1022,438.94,992.69,413.27,957.53Z"/><path class="cls-1" d="M231.09,86.16c26.66-4.14,27-20.84,27-20.89C276.42,30.64,315.77,18.48,328.31,0H0C38.87,24.14,121.29,79.29,165.09,86,172.05,87,209,89.59,231.09,86.16Z"/><path class="cls-1" d="M1282.28,195.94c-22.85,47.42-47.42,79.85-73.06,90.39-16.58,6.82-27,26.55-24.38,47.4.07.62.15,1.23.23,1.85a48.25,48.25,0,0,0,6.07,18.26q46.53,79.94,88.69,149.28c7.87,13,9.09,30.07,3.22,44.47q-22.08,54.1-45.57,115.78a51.19,51.19,0,0,0-2.62,26.12c14,87.81,28.09,166.14,42.15,235.69a44.72,44.72,0,0,0,12.6,23.6l1.53,1.46c23.47,22.29,57.95,2.17,57.95-33.82v-699C1349.09,173.25,1300.67,157.77,1282.28,195.94Z"/><path class="cls-1" d="M670.59,118.48c18-6.5,29.71,24.84,41.54,24.26a39.38,39.38,0,0,0,17.46-4.88c30.95-17.38,97.29-11.31,91.5-33.88,0,0,0,0,0,0-3.69-8.38,5.35-16.7,13.45-12.42,11,5.8,22.63,12,31.21,16.53l20.5,10.36a79.68,79.68,0,0,0,44.08,8.19c42.15-4.29,80.2-9,114.4-14.11A66,66,0,0,0,1079,96.4l98.65-88.32a1.72,1.72,0,0,1,2.87,1.29q0,18.3.87,39.22a27.85,27.85,0,0,0,37.12,25c61.93-21.83,87.12-46.52,85.59-72A1.71,1.71,0,0,0,1302.38,0H406.69C536.8,37.52,649.4,126.13,670.59,118.48Z"/></g></g></svg>