<svg xmlns="http://www.w3.org/2000/svg" viewBox="0 0 1483 1987.1"><defs><style>.cls-1{fill:#f4db6c;}</style></defs><title>experience-bg</title><g id="Experience"><g id="BG"><path class="cls-1" d="M1238.91,1461.26c-85.89,27.27-203.13,42.9-221.49,139.8s51.05,191.42,155,211.11,75-100.84,140.52-169C1574.12,1371.47,1342.47,1428.38,1238.91,1461.26Z"/><path class="cls-1" d="M954.61,245.77c-47.54,2.12-56.57,69.12-11.52,84.46,19.63,6.68,44.37,12.3,74.78,16.64,21.67,3.09,56,1.07,45-17.8C1029.16,271.72,989.39,244.21,954.61,245.77Z"/><path class="cls-1" d="M1267.24,887.3a20.33,20.33,0,0,0-4.63,3.89L783.43,1434.55a18.1,18.1,0,0,0-4.69,10.86c-2.48,58.23,38.86,92.14,145.4,81a16.84,16.84,0,0,0,8.65-3.84c273.11-223,486.71-340.11,469.4-175.74-1,9.11,6.9,14.16,15.69,10.11l.25-.12a19.92,19.92,0,0,0,9.65-10q32.43-74.82,55.22-137.42V823.67C1431.5,808.12,1353.19,835.53,1267.24,887.3Z"/><path class="cls-1" d="M128,25.49C93.28,88.8-17.85,185.59,40.77,332.86c8.58,21.55,34.35,36.17,42.47,39.32C113.56,384,128.49,528.05,289.1,355.23c6.89-7.42,35.9-68.58,47.56-165.47,10-83.37,4.75-166.18-28.8-189.76H150C141.87,5.37,134.35,13.94,128,25.49Z"/><path class="cls-1" d="M1372.79,308.41c-64,36.85-135.2,62.07-210.3,67.83-32,2.46-53,12.76-47.1,23.65l.66,1.21c1.9,3.51,6.52,6.8,13.35,9.53,69.82,27.81,31,81.12,94.27,105.27,17.38,6.63-19.84,13.93-33.24,21.55-32.65,18.56,78.94,13.38,44.22,34.52-7.28,4.43-9.43,9.62-6,14.56a1362.49,1362.49,0,0,0,94.74,122.71c4.06,4.66,12.9,8.67,25,11.32l43.56,9.59c35.22,7.76,80.46,1.25,91.13-11.38V312.92C1469.56,296.71,1400.84,292.26,1372.79,308.41Z"/><path class="cls-1" d="M1023.62,128.66C1112.32,203.2,1214,320,1314.91,272.39c89.44-42.21,125.72-158.16,91.14-272.39h-510C928.18,45.14,984,95.34,1023.62,128.66Z"/><path class="cls-1" d="M392.55,1443.22c-577-210.28-291.48,132.71-154.69,279.72,113.44,121.93,241.75,306.71,377.93,255.36S803.56,1729.36,731,1537,537.26,1496,392.55,1443.22Z"/><path class="cls-1" d="M203.58,568.42C45.38,788.1,359.06,615.88,292,998.53,108.85,2043.64,1606.58,716.2,1041.16,568.42,824.65,511.83,812.39,203.05,762.29,0H490.67C434.74,234.25,339.76,379.32,203.58,568.42Z"/></g></g></svg>