<svg id="Landing_Page" data-name="Landing Page" xmlns="http://www.w3.org/2000/svg" viewBox="0 0 1297.65 1078.42"><defs><style>.cls-1{fill:#22c6c1;}</style></defs><title>home-bg</title><g id="background-pattern"><path id="top-left-pattern" class="cls-1" d="M13.44,30.68c51.44,29.1,125.7,64.25,227.22,106.16,13.08,5.4,28.36.37,35.09-11.63l.18-.33a24.83,24.83,0,0,0,1-22.84C265.68,78.17,272,51.36,292,23a25.12,25.12,0,0,0,3.38-23H1.44C-2.25,10.74,1,23.63,13.44,30.68Z"/><path id="middle-right-pattern" class="cls-1" d="M1265.37,254.47l-85.22,77.78c-7.47,6.52-3.9,18.45.5,27.75,16.58,35,43.14,57.68,66.52,81.91a18.29,18.29,0,0,1,2.58,22q-17,28.6-35.12,61.27a18.44,18.44,0,0,0-1.83,13.06c9.89,42.52,19.8,80.78,29.71,115.08a43.59,43.59,0,0,0,18,24.41l10.79,7c7.86,5.12,19.22,8.51,26.31,6.36V254.44C1292.15,244,1276.47,243.92,1265.37,254.47Z"/><path id="middle-top-pattern" class="cls-1" d="M473.06,103.69a83.15,83.15,0,0,0-40.25-.46c-30.91,4.71-43.74,18.73-47.67,22.71-20.36,20.63-25.94,43.77-23.14,68.82a47.77,47.77,0,0,0,2.44,10.69l0,.07c7.11,19.47,27.44,45.93,83.37,80.62.57.35,46.76,30.92,63.9,23.28,45.45-20.24,41.36-97.88,40.13-118.79-.15-2.58-.84-21.73-10-39.85-7.41-14.6-20.94-26.58-36.71-34.86C493.82,110,474.72,104.14,473.06,103.69Z"/><path id="middle-bottom-pattern" class="cls-1" d="M1008.39,544.24c-24.41,6.76-170.25,80.4-171.52,81C798,643.13,656.15,705.92,706.65,718.5c1.13.28,89,4.92,90,5,88,7,197.36,111.94,220.31,63.4.75-1.59,8.22-12.49,13.67-20.38a36.44,36.44,0,0,1,14.88-12.45l18.33-8.36a36.49,36.49,0,0,0,17-16c10.33-19.34,31.56-58.92,39-71.86C1199.22,520.08,1034.29,537.07,1008.39,544.24Z"/><path id="bottom-pattern" class="cls-1" d="M1297.65,879c-82.1-30-16.65-104.68-72.34-124-4-1.41-69.33-18.33-81.66,40.33,0,0-6.52,30.51-48.2,44.84a27.49,27.49,0,0,1-2.83.77c-75.86,16.5,12.9,78.19,15.09,79.56,122.57,76.44,7.84,123.29-31.22,157.92h221.16Z"/><path id="top-right-pattern" class="cls-1" d="M1118.6,0c1,34.61-.21,75.74-9.35,96.09-12,26.68-126,32.95-227.34,61.95-45.51,13-118.79,53.67-125.6,88.63-10.38,53.36,269.83,163,319.28,114.7,30.72-30,60.32-69.44,75.39-98.7,16.82-32.67,98.15-55,127.32-60a52.13,52.13,0,0,0,19.35-8V0Z"/><path id="top-middle-pattern" class="cls-1" d="M497.12,27.3c85.4,37,127.53,100.78,170.7,100.77S725.7,56.4,781.5,45.19s42.33-3.82,111.28-7.76C950.08,34.16,974.89,8.56,981.64,0H456.93C464.7,9.34,477.34,18.72,497.12,27.3Z"/></g></svg>