<svg id="Landing_Page" data-name="Landing Page" xmlns="http://www.w3.org/2000/svg" xmlns:xlink="http://www.w3.org/1999/xlink" viewBox="0 0 818.03 540"><defs><style>.cls-1{fill:#1d6082;}.cls-2{fill:#164f72;}.cls-3,.cls-32{fill:#000102;}.cls-13,.cls-3{opacity:0.15;}.cls-10,.cls-11,.cls-13,.cls-14,.cls-15,.cls-16,.cls-17,.cls-21,.cls-22,.cls-24,.cls-25,.cls-3,.cls-30,.cls-31,.cls-32,.cls-7{isolation:isolate;}.cls-4{fill:#b29696;}.cls-5{fill:#bfb6b6;}.cls-6{fill:#a09a9a;}.cls-27,.cls-7{fill:#d7d8db;}.cls-16,.cls-22,.cls-7{opacity:0.5;}.cls-8{fill:#5c6468;}.cls-9{fill:#c6c1c1;}.cls-10{fill:#122128;opacity:0.4;}.cls-11,.cls-13{fill:#070707;}.cls-11,.cls-15{opacity:0.05;}.cls-12{fill:#757161;}.cls-14{fill:#010b11;}.cls-14,.cls-21,.cls-30,.cls-32{opacity:0.2;}.cls-15{fill:#0a0808;}.cls-16{fill:#3a3414;}.cls-17{fill:#020202;}.cls-17,.cls-31{opacity:0.1;}.cls-18{fill:#1b3863;}.cls-19{fill:#2a5991;}.cls-20{fill:url(#linear-gradient);}.cls-21,.cls-22,.cls-25{fill:#0d1b2d;}.cls-23{fill:url(#linear-gradient-2);}.cls-24{fill:#4f6da3;opacity:0.6;}.cls-25{opacity:0.3;}.cls-26{fill:#443c3c;}.cls-28{fill:#666;}.cls-29{fill:#939090;}.cls-30{fill:#6e7477;}.cls-31{fill:#04050a;}</style><linearGradient id="linear-gradient" x1="4293.16" y1="4969.09" x2="4516.45" y2="4969.09" gradientTransform="translate(-3947 -4637)" gradientUnits="userSpaceOnUse"><stop offset="0" stop-color="#4f6da3"/><stop offset="1" stop-color="#1f3c66"/></linearGradient><linearGradient id="linear-gradient-2" x1="4360.23" y1="4851.14" x2="4454.33" y2="4851.14" xlink:href="#linear-gradient"/></defs><title>me-img</title><path id="inner_ring" data-name="inner ring" class="cls-1" d="M727.19,271.62a95,95,0,0,0-8.35-9.49c-9.32-9-21.36-17-35.42-24.79-22.68-12.57-57.4-29.8-73.13-37.88L521,156.12l-80.43-42.71a494.72,494.72,0,0,0-59-25.76c-4.57-1.67-9.76-3.25-15.3-4.83s-11.42-3-17.31-4.31c-94.75-20-188.1,34.81-238.2,119.1-2.81,4.66-5.45,9.49-7.91,14.42-36.65,69.87-14.5,167.61,48.78,212.53,3.61,2.72,7.3,5.36,11.08,7.82,4,2.55,8.26,4.92,12.48,7s8.61,4,13.09,5.71c0,0,12.92,4.75,21,5.28s2-3.87,6.86-3.52L366.56,456c1-3.51,21.71-5.27,46.93-6.5,5.1-.26,10.29-.53,15.56-.7a675.48,675.48,0,0,0,198.2-39c4.57-1.67,9.14-3.34,13.8-5.1,5.19-1.58,10.37-3.25,15.56-5.27,11.16-2.55,20-8.61,29.8-14.5A163,163,0,0,0,700,375.51c17.4-13.62,31.29-31.38,38.15-54.49a66.88,66.88,0,0,0,1.05-12.57A62.19,62.19,0,0,0,727.19,271.62ZM588.4,365.14a37.89,37.89,0,0,1-4.92,10.9,37,37,0,0,1-32.61,16.79l-13.8,8.43a277.1,277.1,0,0,1-78.49,28.92c-39.29,7.91-115,1.5-112.59,9-26.55,0-135.54-49.49-139.76-50.28a34.15,34.15,0,0,1-10.37-3.78c-23.73-18-36-48.08-31.55-76.47.26-3.07.7-6.41,1.23-9.93,2.72-17.23,9.93-37.35,25.14-53.88C217.75,216,256.07,203.59,334.74,201c41.84-1.32,72.16.44,94.57,3.34,0,0,100,24.61,115.5,40.08,22.41,11.87,47.72,23.73,51.86,39.29C606.33,320,615.56,340.27,588.4,365.14Z"/><path id="inner_ring-2" data-name="inner ring-2" class="cls-1" d="M722.8,271.62a96.24,96.24,0,0,0-8.35-9.49c-9.32-9-21.36-17-35.43-24.79-22.67-12.57-57.39-29.8-73.13-37.88l-89.3-43.34-80.42-42.71a494.15,494.15,0,0,0-59-25.76c-4.57-1.67-9.76-3.25-15.29-4.83s-11.43-3-17.32-4.31c-94.75-20-188.09,34.81-238.19,119.1-2.82,4.66-5.45,9.49-7.91,14.42C61.82,281.9,84,379.64,147.26,424.56c3.6,2.72,7.29,5.36,11.07,7.82,4,2.55,8.26,4.92,12.48,7s8.62,4,13.1,5.71c0,0,12.92,4.75,21,5.28s2-3.87,6.85-3.52L362.16,456c1-3.51,21.71-5.27,46.94-6.5,5.1-.26,10.28-.53,15.55-.7a675.61,675.61,0,0,0,198.21-39c4.57-1.67,9.14-3.34,13.8-5.1,5.18-1.58,10.37-3.25,15.56-5.27,11.16-2.55,20-8.61,29.79-14.5a163.12,163.12,0,0,0,13.63-9.41c17.4-13.62,31.29-31.38,38.14-54.49a66.06,66.06,0,0,0,1.06-12.57A62.19,62.19,0,0,0,722.8,271.62ZM584,365.14a38.43,38.43,0,0,1-4.92,10.9,37,37,0,0,1-32.61,16.79l-13.8,8.43a277.1,277.1,0,0,1-78.49,28.92c-39.29,7.91-115.06,1.5-112.6,9-26.54,0-135.53-49.49-139.75-50.28a34.06,34.06,0,0,1-10.37-3.78c-23.73-18-36-48.08-31.56-76.47.27-3.07.71-6.41,1.23-9.93,2.73-17.23,9.94-37.35,25.14-53.88C213.35,216,251.68,203.59,330.34,201c41.84-1.32,72.17.44,94.58,3.34,0,0,100,24.61,115.49,40.08,22.42,11.87,47.73,23.73,51.86,39.29C601.94,320,611.17,340.27,584,365.14Z"/><path id="outer_ring" data-name="outer ring" class="cls-2" d="M793.11,256.33a99.44,99.44,0,0,0-10-11.17c-11.16-10.63-25.66-20.13-42.54-29.27-27.25-14.76-68.91-35.15-87.9-44.73L545.42,120,448.91,69.55a578.66,578.66,0,0,0-70.84-30.33c-5.54-1.93-11.78-3.86-18.37-5.71s-13.71-3.6-20.83-5.1C225.13,4.59,113.07,69.37,53,168.87c-3.34,5.54-6.51,11.16-9.5,17C.56,266.17,18.4,349.06,42.05,392.56c12.74,23.38,35.15,45.88,35.86,46.59,81.13,89,221.76,81,271.51,77.79,108.28-6.86,203.83-34.64,236.52-45.36,39.82-13.1,95.37-39.11,105.48-45.09,17.4-10.28,43.42-25.66,68.47-47,.44-.35.79-.71,1.23-1.06a147.13,147.13,0,0,0,11.34-9.67c15.2-14.5,30.5-31.55,33.84-54.05a103.86,103.86,0,0,0,1.31-14.86A73.58,73.58,0,0,0,793.11,256.33ZM622.77,370.77A364.35,364.35,0,0,1,586.47,397a50.87,50.87,0,0,1-5.71,3.07L573,403.64c-1.84.88-3.6,1.84-5.36,2.9l-3.43,2.11A339.38,339.38,0,0,1,470,442.84c-47.11,9.4-118.31,12.92-135.18,10.55C203.07,435.19,189.71,413,156.4,390.81a35.71,35.71,0,0,1-3.52-2.55c-27.24-21.45-41.4-56.17-36.21-89,.35-3.69.79-7.65,1.49-11.69,3.26-20.39,8.53-54.23,15.56-78.49,17.4-60.12,84.38-132.2,177.55-89,45.62,21.09,96.68,52.83,123.58,56.25,0,0,72,8.62,130.44,42.72,28.83,16.61,58.18,31.11,77.08,58.36,20.83,30.15,8.09,57.93-9.49,82.71A58.65,58.65,0,0,1,622.77,370.77Z"/><path id="shadow" class="cls-3" d="M495,104.18,427.38,273c-11.87,38.23,5.71,77.7,39.38,88.24l104.33,32.44c19.6,6.06,74.09,9,89.92-4.31,22.06-18.46,13.44-41.49,22-127.71,2.2-22.06,32.26-57.75,32.26-57.75"/><path id="cat" class="cls-4" d="M564.94,346.42c11.95-7.65,31.9-22.68,31.11-45.27-.26-7.56-4.75-18.72-10.63-31-3.61-7.48-8.35-21.63,5.71-29.89a51.46,51.46,0,0,1,27.51-7.73c6.5,0,18.55,1.05,23.73,2.9,7.12,2.63,3,7.64-.09,7.29-19.86-2.2-26.28-.26-29.18.7-5.1,1.76-11.16,4.49-14.59,11.87-3.07,6.51,3.87,14.5,6.86,20,6.5,11.95,7.64,29.53,3.25,42.63-4.66,14-4.57,11.87-33,26.63S564.94,346.42,564.94,346.42Z"/><g id="head"><path id="head-2" class="cls-5" d="M507.89,147.25c-6.41,32.08-27.95,54.76-48.25,50.8-7-1.41-13-5.8-17.49-12.39-8.44-12.31-11.87-32.08-7.65-53,6.42-32.08,27.95-54.76,48.25-50.81S514.31,115.17,507.89,147.25Z"/><path id="head-3" class="cls-6" d="M434.67,180.56c1.32,12.57-12.21,19.16-14.59,21.18s13,10.9,13,10.9,15.21,9.85,33.58,8.18,25.84-5.1,30.5-10.2,4.92-8.53,4.92-8.53-6.77-10.19-6.94-17.93,0-1.23,0-1.23l-4.22,5.28-6.24,6.33s-13.19,7.73-18.11,7.73c-22.76.26-30.41-20.74-30.41-20.74Z"/><path id="head-4" class="cls-7" d="M434.67,180.12s4.4,9.58,10.9,15.56c-5.27,10.9-9.05,14.76-12.48,17-3.25-2-10.37-5.62-13.62-10.63,2.46-2.2,8.17-4.66,12.13-10.46C433.88,188.12,434.5,185.22,434.67,180.12Z"/><path id="head-5" class="cls-8" d="M497.7,160.43c-1.06,1.94-6,9-9.5,10.37-4.74,1.85-6.85.71-8.35.88-3.07.35-2.81-.88-6.15-5.62-2.2-3.17-7.73-12.57-10.37-11.69-4,1.49-9.32-1.5-9.32-1.5a75.3,75.3,0,0,0-11.95,8.35c-6.24,5.28-7.3-7.38-7.3-7.38-.52-5-1.23-12.57-1-14,1.14-6.32,4.48-18.54,4.21-19.86s-6,15.38-7.2,20.83c-.79,3.52-.88,15.21-.88,16.79a72,72,0,0,0,.88,7.56,61.29,61.29,0,0,0,1.93,9.4c.79,2.11.62,3.17,2,6.07s1.23,2.72,2.73,5.62,2.11,4.84,3.78,6.24,2.72,2.82,4,3.61,2,1.67,3.34,2.19,2.81,2.47,4.66,2.64,4.22,1.5,6.33,1.5,4.22.52,7,0,3.87.17,8.52-1.5,8.71-4.83,9.67-6.33a19.64,19.64,0,0,1,4.66-5,22.79,22.79,0,0,0,5.8-8c1.15-2.54,3.87-6.06,4.84-8.52s3.69-8.18,3.69-8.18l1.58-17.49C505.25,147.34,502.35,151.73,497.7,160.43Zm-30.15,12.22c-.71,3.78-6.33,2.2-12.75,1.14s-11.07-4.3-7.2-8.17c2.72-2.73,7.2-8.26,12.74-4.92C466.67,164.48,468.25,168.78,467.55,172.65Z"/><path id="head-6" class="cls-9" d="M454.89,115.25c-1.14.53,5.27,1.32,8.09,2.38,1.14.44,3.6,4.83,2.19,7.38s-1.93,4.39-3.69,7.65-3.16,5.71-4.39,8-1.85,2.72-2.46,5.09-1.67,4.66-.71,5.72,9.41,3.34,9.67,0c.18-1.85.53-6.42,1.58-8.88a93,93,0,0,1,4.49-8.53c1.23-2.19,2.11-5.09,3.25-7.2a8.55,8.55,0,0,1,4.22-4.4c2.37-1.23,1.23-1.67,4.39-1.41,2.38.18,2.38.8,5,1.85,3.78,1.58,9.23,5.71,9.23,5.71l1.14-15.38S484.78,98,478.8,97.67C471.24,97.24,466.58,110.42,454.89,115.25Z"/><path id="head-7" class="cls-10" d="M486,130c-4-1-4-.18-8.35,0-.88,0-1.59.44-1.59,1s-.44.71.62.8a10.25,10.25,0,0,0,2.28-.09c2.64,1.14,5.28,2.72,7.65,3.34,4.4,1,6.33.26,6.68-1S490.31,131.07,486,130Z"/><path id="head-8" class="cls-10" d="M459.46,125.71c-2.55-1.49-2.64-2.37-6.5-3.34-4-1.05-7.74-1.05-8.09.09s-.7,1.85,3.34,2.9a44.66,44.66,0,0,0,6.77,1.58c.88,0,2.2-.52,3.34.36,1.05.26,1.84.17,1.93-.27A3.24,3.24,0,0,0,459.46,125.71Z"/><path id="head-9" class="cls-11" d="M502.62,109.36s-1.5,43.16-3,47.73,5.54-9.75,5.54-9.75l1.67-31.47Z"/><path id="head-10" class="cls-12" d="M477.22,97c-7.65.09-18.64,16.88-32.88,21.18s-36.74,6.07-42.36,6.07-12.57-2.2-12.57-2.2S424,110.77,428.35,106.9A39.46,39.46,0,0,0,435.73,97s-13,9-21.18,9,7.82-9,7.82-9-12.57,1.32-21.18-6.41c14.68-2.2,32.25-6.51,32.25-6.51s-12.3-.44-15.38-4.31c9.67-2.72,17.76-5.36,17.76-5.36s-13-11-11.25-16.7c5.45,4.31,21.62,7.21,21.62,7.21l-3.78-5.45,8.09,3.16a116.19,116.19,0,0,1-2-13.53c4.31,4.92,6.07,6.94,10.38,8.35s10.1-2.9,10.1-2.9l8.35-2.9L490.58,49s8.61-.26,12.39,0a18.9,18.9,0,0,1,7.47,2.64,130.35,130.35,0,0,0,10.9,8.87c6.33,4.66,10.37,8.62,13.27,13.89s6,9.93,4.66,15.56c-1.49,6.15,0-.62-2.9,11.51s-4.75,15.74-6.94,20.22c-2.73,5.45-3.43,8.17-6.16,12.83l-.26.35c-3.16,5.37-7.12,13.45-9.32,17.32a133.94,133.94,0,0,1-9.14,13.89c-2.9,3.51,1.14-22.5,1.14-22.5l1.15-13.89v-13.8l-4.75-7.21V119C502.18,119,485.48,96.88,477.22,97Z"/><path id="head-11" class="cls-5" d="M506.57,128.35s2.73-1.76,4.84-.44c1.67,1,2,3.87,3.69,6.68,1.41,2.55-1.06,6.15-5.19,10.72-1.75,1.94-2.46,4.13-5.8,6.42Z"/><polygon id="head-12" class="cls-13" points="486.71 102.07 504.02 124.48 502.71 111.74 486.71 102.07"/><path id="head-13" class="cls-13" d="M437.84,121.58s9.93-1.14,17.05-6.33c3.78-2.72,12.75-8.52,18.55-15.64a5.3,5.3,0,0,1,6-2s-3.07-2.55-12.57,5.27-15.38,12.22-21.18,14.42S438,120,438,120Z"/></g><g id="cat-2"><path id="cat-3" class="cls-14" d="M581.55,325.5a48.2,48.2,0,0,0-33,21.09A48.92,48.92,0,0,0,547,398.36l27.69,17.58L586,409.09c24.26-14.51,33.75-31.64,35.07-36.48"/><path id="cat-4" class="cls-14" d="M537.51,435c8.44,4.92,14.5,5.89,22.77,4.48,17-3,28.3-18.55,25.22-34.9s-19.33-27.15-36.3-24.17S520.9,399,524,415.33a29.46,29.46,0,0,0,4.13,10.37"/><path id="cat-5" class="cls-4" d="M610.82,327.52a44.83,44.83,0,0,0-63.38,60.12l25.67,16.26,11-4.13c32.52-17,36.39-26.28,36.91-26.81C622.42,357.14,623.21,335.78,610.82,327.52Z"/><path id="cat-6" class="cls-15" d="M588,390.28c-1.31-6.68,1.76-17.76-10.1-16.44-8.27,1-10.46,4.92-18.46,5.19-6.33.26-24.7-12.66-25.76,3.16-.43,6.77-4.57,8.79-2.9,17.93,2.82,15,17.93,25.05,33.76,22.33S590.78,405.4,588,390.28Z"/><path id="cat-7" class="cls-4" d="M583.66,394.32c-1.32-6.68,1.76-17.75-10.11-16.44-8.26,1-10.46,4.93-18.46,5.19-6.33.26-24.7-12.66-25.75,3.16-.44,6.77-4.57,8.79-2.9,17.94,2.81,15,17.93,25.05,33.66,22.32S586.47,409.35,583.66,394.32Z"/><ellipse id="cat-8" class="cls-16" cx="564.95" cy="402.51" rx="2.99" ry="1.49" transform="translate(-87.6 167.21) rotate(-15.64)"/><ellipse id="cat-9" class="cls-16" cx="545.09" cy="402.85" rx="1.49" ry="2.99" transform="translate(-35.82 752.07) rotate(-67.48)"/><path id="cat-10" class="cls-9" d="M533.91,392.12c-.88-2.46-.7-8.87,1.4-9.66,2.73-1.06,7.48,2,8.44,4.48"/><path id="cat-11" class="cls-9" d="M577.68,392.12c1.06-2.37,1.32-8.79-.7-9.75-2.64-1.23-7.65,1.49-8.7,3.86"/><path id="cat-12" class="cls-9" d="M614.86,342.64c-13-26.72-40.52-16.7-54.32-6.86-9.93,7.12-11.87,19.34-1.49,23,5.71,2,22.5-2.46,30.41,4.66,15.38,13.89,6.33,19.95,7.38,29,9.23-5.63,19.16-13,21.71-16.35C618.11,369.53,620.4,354.15,614.86,342.64Z"/><path id="cat-13" class="cls-17" d="M613.63,329.81c-8.35-3.52-16.7,5.8-17,13A101.39,101.39,0,0,1,592,369.36c-3.25,10.19.88,22.41-.79,26.63,9.4-5.1,26.45-16.08,29.88-22.94C621.54,366.19,625.41,342.64,613.63,329.81Z"/><path id="cat-14" class="cls-17" d="M581,379.91c.44,2.11,2.73,10.9.53,16.52-2,5.1-5.28.62-9.06,8.61-4.48,9.58-1.31,12.57-4.74,15.47-4.4,3.7-12.57,5.72-17.58,6,9.67,0,19.69-2.28,25.58-7.91,1.58-1.41,8.43-9,8.35-17.67,0-3-.79-6.5-.79-10.37C583.22,385.71,582.51,380.52,581,379.91Z"/></g><g id="body"><path class="cls-18" d="M367.61,267.05l42-55.2a1.38,1.38,0,0,0-1.4-2.2l-10,2c-7,1.41-14.07,3.17-21,4.93-6.15,1.58-10.72,3.25-15.2,7.91-6,6.15-10,14.15-12.49,22.5a.81.81,0,0,0,0,.61c.53,3.43,1.23,6.77,1.59,10.11.61,4.31.17,8.26-.27,12.57v.44A47.86,47.86,0,0,1,352,282c0,2,.08,4,.17,6v.26c1.23,4.66,1.23,9.67,1.41,14.5,0,.53.09,1.15.09,1.67a1.16,1.16,0,0,0,.26.71,3.65,3.65,0,0,1,.61,2.11c-.26,2-.52,3.95-.79,6v1.67c-.08,5.63.62,11.17.71,16.79a3.74,3.74,0,0,1-2.11,3.69,1.48,1.48,0,0,0-.79,1.5,240.3,240.3,0,0,0,6.94,28.3c0,.09.09.26.09.35l.17,42v18a1.51,1.51,0,0,0,1.32,1.41l12.92.53a1.4,1.4,0,0,0,1.41-1.06c1.58-6,8.88-36.3.7-75.59a380.66,380.66,0,0,1-7.73-83A1.38,1.38,0,0,1,367.61,267.05Z"/><path class="cls-19" d="M366.82,240.77c1.32-3.52,4.39-13.27,6.68-20.83a1.36,1.36,0,0,0-1.85-1.67,25.27,25.27,0,0,0-9.66,6.24c-8.44,8.7-12.93,20.83-14.77,32.61a4.36,4.36,0,0,1-.7,1.75,1.48,1.48,0,0,0-.27.88,114.27,114.27,0,0,0,1,12.13c2.81,21.8,4,31.82,2.72,47-1.23,13.88,7.65,43.77,8.44,46.41,0,.08.09.26.09.35l.18,42v18a1.5,1.5,0,0,0,1.31,1.41l12.66.52a1.37,1.37,0,0,0,1.41-1.32,372.35,372.35,0,0,0-7.83-76.82C357.06,305.46,355.74,269.86,366.82,240.77Z"/><path class="cls-20" d="M568.19,246.74a1.37,1.37,0,0,0,1.23-1.67,39.85,39.85,0,0,0-3-8.78c-6.86-11.87-6.33-12.13-24.35-18.64s-38.14-14.33-39.2-15.64c-.7-.79,0,17-35.33,18.72h-.27c-25.57-3.08-26.28-4-33.48-8.18-12-6.85-15.83-10.9-15.83-10.9s3.08-.52-2.37-.08a1.4,1.4,0,0,0-1,2.28,4.17,4.17,0,0,1,1.24,3.25c-.09,1.67-15.56,4.14-17.67,4.49-7,1.4-14.06,3.16-21,4.92-6.15,1.58-10.72,3.25-15.2,7.91-8.44,8.7-12.93,20.83-14.77,32.61a3.48,3.48,0,0,1-.79,1.84,1.7,1.7,0,0,0-.27.88c.09,1.32.09,2.64.18,4a1.37,1.37,0,0,0,1.76,1.23c2.11-.7,6.06,1.58,9.31,5.54a1.39,1.39,0,0,0,2.47-.71c.35-2.28.79-4.74,1.23-7.12a1.38,1.38,0,0,1,2.72.18c1.32,23.91,2.2,39.55,2.2,40.43v.09l4.48,36.21,3.34,19.52v.17l1.85,33.49a2.09,2.09,0,0,1-.18.79c-1.49,2.29-9.4,15.21-9.4,25.93,0,11.34-1.5,24.43-1.59,25.31v.09L362.34,456a1.23,1.23,0,0,0,.17,1l3.08,5.1a1.36,1.36,0,0,0,1.14.7h38.32a1.08,1.08,0,0,0,.53-.09l25.14-9.4h.09L487,427.37a1.28,1.28,0,0,0,.71-.79l26.63-67.24a.78.78,0,0,0,.09-.44c.17-3.43,2.46-46.06,5.71-63.2a291.79,291.79,0,0,0,4.13-29.88,1.42,1.42,0,0,1,1.67-1.23c3,.61,9.14,1,6.33-7.82C529.87,249.82,560.8,247.27,568.19,246.74Z"/><path class="cls-21" d="M545.42,397.66,474.67,437.3a1.31,1.31,0,0,1-1.58-.17l-.44-.36a309.8,309.8,0,0,1-41,16.27,1.48,1.48,0,0,0-1,1.67l1.41,5.88a1.35,1.35,0,0,0,1.84,1s83.77-45.62,83.86-45.62c33.84-19.51,33-11.25,43-38.14a65,65,0,0,0,4-29.62c-7.82,36-17.76,47.81-19.16,49.31C545.69,397.49,545.51,397.57,545.42,397.66Z"/><path class="cls-22" d="M512.55,358.11c-.53-22,0-39.64,1.32-54a.09.09,0,0,0-.09.09,1.09,1.09,0,0,0-.61.79c-.53,1.58-14.33,14.5-10.55,66.8,3.87-4.83,7.21-9.23,9.67-12.92A1.45,1.45,0,0,0,512.55,358.11Z"/><path class="cls-18" d="M569.59,245.87a1.24,1.24,0,0,0-.87-1l-9-3.25c-7.3-3-24.79,2.81-24.79,2.81s-16.08,2.64-21.09,59.68c4.13-1.93,14.59-6.33,20-5l8.35,1.67a1.5,1.5,0,0,1,1,.88c1.23,3.25,19.08,20.48,21.71,46.41,1.23-5.8,2.46-12.22,3.61-19.43C576.1,279.18,570.65,250.79,569.59,245.87Z"/><path class="cls-18" d="M507.28,410a1.06,1.06,0,0,0,.08-.88,365.15,365.15,0,0,1-4.83-37.27c-15.73,19.51-39.47,45.09-44.56,50.54a1.41,1.41,0,0,0,.08,2l14.51,12.48C487.76,429.39,502.27,420.07,507.28,410Z"/><path class="cls-18" d="M542.17,300.89l-8.35-1.67c-5.45-1.32-15.91,3.07-20,5a493.9,493.9,0,0,0-1.32,54,1.48,1.48,0,0,1-.26.79c-2.46,3.69-5.89,8.08-9.67,12.92a365.15,365.15,0,0,0,4.83,37.27,1.53,1.53,0,0,1-.08.87c-5,10.11-19.6,19.43-34.63,26.9l.44.35a1.48,1.48,0,0,0,1.58.18l70.75-39.64c.09-.09.27-.18.35-.27,1.32-1.49,11.34-13.18,19.17-49.31-2.55-25.93-20.48-43.24-21.71-46.4A1.31,1.31,0,0,0,542.17,300.89Z"/><path id="body-4" class="cls-23" d="M418.77,200.69a1.29,1.29,0,0,1,1.23.44c1.49,1.67,5.8,6.59,8.52,8.35a71.49,71.49,0,0,0,17.05,8.26c7.3,2.55,11.43,3.08,19.08,2.72,9-.35,11.34-1.05,14.76-1.93a73.94,73.94,0,0,0,10.38-3.16c4.74-1.85,7.11-5.1,9-7.3a22.05,22.05,0,0,0,3-5.36,1.41,1.41,0,0,1,1.93-.7l2.81,1.4a1.39,1.39,0,0,1,.71,1.67c-.62,2.11-2.2,6.42-4.13,8.88s-8.62,7.47-14.42,9.23c-3.16,1-12.3,3.6-15.73,3.95s-17.93,1.76-30.41-2.9c-8.35-3.07-12.57-4.83-22.59-13.18a44.67,44.67,0,0,1-6.51-7.47,1.41,1.41,0,0,1,.88-2.2Z"/><path id="body-5" class="cls-24" d="M420,202.89a75,75,0,0,0,9.05,7.91,1.36,1.36,0,0,1-.53,2.46c-43.24,9-36.39,33.31-39.11,36s100.73,8.53,97.3,15.91-1.5,71.46-2.2,78.23-20,39.11-20,49.22-18.19,4.75-18.19,17.4S429.14,413,429.14,423c0,9.67-27.16,17.14-29.18,17.67-.09,0-.18.09-.27.09L390.9,445a1.43,1.43,0,0,1-2-1.23l.53-72.08L388.88,351a.64.64,0,0,0-.09-.44c-.52-1.32-3.16-7.65-6.24-9.67-3.43-2.28-7.91-4.39-10.28-4.39h-2.55c-1.76.44-17.58,4.22-18.37-.09-3.16-17.49.7-25.67-1.32-40-6.06-42.81-4-45.36-1.67-61v-.09c4.84-20.74,12.13-20.74,22.94-26.19.09,0,.09-.09.18-.09,22-7.39,43.86-6.59,47.55-6.42A.93.93,0,0,1,420,202.89Z"/><path id="body-6" class="cls-10" d="M513.69,358.11l4-.18a1.35,1.35,0,0,1,1.05,2.29l-.79.79a1.45,1.45,0,0,1-1.32.44l-3.16-.62A1.37,1.37,0,0,1,513.69,358.11Z"/><path id="body-7" class="cls-10" d="M512.2,361l8.08,3.51a1.36,1.36,0,0,1,.71,1.85l-1.06,2.46a1.39,1.39,0,0,1-2.19.53l-7-6A1.43,1.43,0,0,1,512.2,361Z"/><path id="body-8" class="cls-25" d="M544.81,398.19,475.72,436.6a1.83,1.83,0,0,1-2.55-.88h0a2,2,0,0,1,.71-2.46l67.41-41.75a5.64,5.64,0,0,0,1.06-.88c4.39-4.57,13.88-14.42,16-18.37l-5.62,13.62C550.87,390,546.83,397.22,544.81,398.19Z"/><path id="body-8-2" data-name="body-8" class="cls-25" d="M545.42,397.66c-16.17,9.76-70.75,39.64-70.75,39.64-1,.53-.18-2.11-.71-3.16l-2.19.09c-.44-.88,2.11-2,3-2.55l67.41-41.75a5.64,5.64,0,0,0,1.06-.88c4.39-4.57,14-14.15,15.73-18.64,0,0-3.34,9.67-5.27,13.72C551.49,388.7,547.36,396.52,545.42,397.66Z"/></g><path id="laptop-2" class="cls-26" d="M350.91,468.15l-14.85,16.79a3.05,3.05,0,0,0,.26,4.31,3.55,3.55,0,0,0,1,.61l8.43.44c.71.27,2.82-1.84,3.52.44L395,476.42l67.32-24.88a3,3,0,0,0,2-2.9h0a3.08,3.08,0,0,0-3.17-3.08h0l-100.73,1a3.2,3.2,0,0,0-3,2.2L351.53,467A2.12,2.12,0,0,1,350.91,468.15Z"/><path id="hand" class="cls-27" d="M460.6,422.62l-36,6.95s-49.05,19.51-38.94,22.15,10.11,9.75,23.47,5.36S434,455.5,444,451.45s29.8-15,29.8-15Z"/><path id="laptop-3" class="cls-28" d="M372.53,336.49l-183.43-1c-10.82-.09-19.69,8.17-19.69,18.28l-.18,39.11-.35,67.6c-.09,10.1,8.7,18.45,19.51,18.45l183.35,1c10.81.09,19.69-8.09,19.69-18.28l.09-15.65.53-91.06C392.05,344.84,383.34,336.57,372.53,336.49Z"/><path id="laptop-4" class="cls-29" d="M467.28,445.83c-.44-2-2-3.34-3.86-2.64L388.18,474c-5.28,2.47-7,3.08-8.35,3.08l-187.92-7.82h-10.2c-1.84,0-3.34,2.81-3.34,6.24v9.14c0,3.43,3.61,5.27,8.26,5.1,0,0,109.35-1,160.33,1.14,5.44.26,25.05.35,30.49.35,9.41-3.34,1,0,12-4.48l2.28-1,18.2-8.08c21-9.41,48.52-21.89,55.37-25,1.06-.53,1.5-1.94,1.94-3.52Z"/><path id="laptop-5" class="cls-9" d="M377.45,491.09l-193.72-.35a5.39,5.39,0,0,1-5.36-5.36h0a5.33,5.33,0,0,1,5.36-5.36l193.46-.7v6.5C377.19,485.73,377.19,488.54,377.45,491.09Z"/><path id="laptop-6" class="cls-28" d="M178,476.15H376.66a.6.6,0,0,1,.62.62v5.45a.6.6,0,0,1-.62.61H178a.59.59,0,0,1-.61-.61v-5.45A.6.6,0,0,1,178,476.15Z"/><path id="laptop-7" class="cls-9" d="M369.9,336.22l-183.44-1c-10.81-.09-19.69,8.17-19.69,18.28l-.18,39.11-.35,67.59c-.09,10.2,8.7,18.46,19.52,18.46l183.43,1.06c10.81.08,19.69-8.09,19.69-18.29l.09-15.64.53-91.06C389.41,344.57,380.71,336.31,369.9,336.22Z"/><path id="latptop" class="cls-30" d="M362.86,344.4l-169.19-.88c-10-.09-18.11,7.21-18.2,16.17l-.17,34.72-.36,59.86c0,9,8,16.34,18,16.43l169.2.88c10,.09,18.11-7.21,18.2-16.17l.08-13.89.44-80.69C380.88,351.78,372.8,344.4,362.86,344.4Z"/><path id="hand-2" class="cls-31" d="M397.06,457.52c2.72,1.23,6.06,1.58,12.13-.35,13.36-4.4,24.87-1.59,34.89-5.63s29.8-15,29.8-15l-2.82-2.9"/><path id="body-9" class="cls-10" d="M527.76,74.38s15.73,12,4.39,41.84c-4.31,11.25-10.2,19.51-13.45,26.11-2.46,5-4.39,8.61-6.33,11.95a79.07,79.07,0,0,1-8.17,11.95c-1.32,0-.26-2.37-1.41,0s-1.58,4-3.51,7.83c-.88,1.75-2.29,3.86-4.13,7a23.33,23.33,0,0,0,.79,8.26s2.72,8.35,6.24,12.57c1.14,1.05,7.65,3.69,7.65,3.69s23.46,9.23,31.37,11.95c7.21,2.46,13.45,4.66,17.06,7.74a36.59,36.59,0,0,1,8.08,10.9c3.34,7.47,4.57,14.76,5.19,24.52.61,8.79.88,20.22.88,27.25-.09,10.19-4.22,40.69-4.22,40.69L545.6,351.6s-8-12.48-6-31c1.58-14.15,1.41-37.89-4.83-56.08-1.58-4.66-7.12-14.85-7.12-14.85s-3.08-4.84-4.31-6.33c-5.1-6.33-16.87-17.76-23.47-22.5-4.48-3.26-15-7.83-16.87-14.24a22.87,22.87,0,0,1,0-9.5c1.4-4.39,6.33-12.3,8.17-16.43,2.64-5.72,6.24-17.76,8.26-23.73.88-2.64,2.46-3.87,5.54-9.76,2-1.93,3.52-2.81,5.19-4.31a18.73,18.73,0,0,0,4.3-6.59,24.27,24.27,0,0,0,.44-2.81c1.94-6.77-6.68-31.64-6.68-31.64Z"/><path class="cls-32" d="M207,491.45a2.47,2.47,0,0,0,1.05,4.74c17.23-.09,50.8-.26,81.39.09,29.1.26,66.1,2.11,105.74,2.55.35,0-9,1.49,0,0,18.72-3,56.87-28.66,80-38.41,5.54-2.37-8.7-4.84-14.67-4.92h-.88a4.34,4.34,0,0,0-1.06.17L377.89,491a1.92,1.92,0,0,1-1,.17H257L228.91,491l11.69.08-32.61.18a1.31,1.31,0,0,0-1,.18Z"/></svg>