<svg xmlns="http://www.w3.org/2000/svg" viewBox="0 0 2040 1618"><defs><style>.cls-1{fill:#e69374;}</style></defs><title>skills-bg2</title><g id="Sills"><path class="cls-1" d="M608.18,231.67c-119.44-16.4-85.94,84.92-161,142.33C147.8,602.9,413.72,554.68,532.59,526.87,631.17,503.81,765.78,490.48,786.65,409S727.62,248.07,608.18,231.67Z"/><path class="cls-1" d="M119.65,1113.06c-71.53,17.84-150.41,66.78-27.38,109.33,373.82,129.29,614.26,161.78,696.5,113.71,112.43-65.72-199.1-277.16-392.37-266.73C312.16,1073.92,220.05,1088,119.65,1113.06Z"/><path class="cls-1" d="M1761.66,1520.37c-105.55-66-226.57-169.39-346.38-127-100.19,35.46-144,129.1-113.83,224.62h595.21C1857.76,1582.64,1802.52,1545.91,1761.66,1520.37Z"/><path class="cls-1" d="M1636,0c-36.52,73.25,0,175.59,101.16,256.57,122.2,97.86,176.48-9.53,302.89-25.33V0Z"/></g></svg>