<svg xmlns="http://www.w3.org/2000/svg" viewBox="0 0 1500 1618"><defs><style>.cls-1{fill:#e69374;}</style></defs><title>skills-bg</title><g id="Sills"><path class="cls-1" d="M445.56,231.67C357.6,215.27,382.27,316.59,327,374c-220.46,228.9-24.62,180.68,62.91,152.87C462.49,503.81,561.62,490.48,577,409S533.52,248.07,445.56,231.67Z"/><path class="cls-1" d="M85.79,1113.06C33.11,1130.9-25,1179.84,65.63,1222.39,340.93,1351.68,518,1384.17,578.55,1336.1c82.8-65.72-146.62-277.16-288.95-266.73C227.56,1073.92,159.73,1088,85.79,1113.06Z"/><path class="cls-1" d="M1295,1520.37c-77.73-66-166.85-169.39-255.09-127-73.78,35.46-106,129.1-83.82,224.62h438.33C1365.8,1582.64,1325.11,1545.91,1295,1520.37Z"/><path class="cls-1" d="M1202.44,0c-26.89,73.25,0,175.59,74.5,256.57,90,97.86,130-9.53,223.06-25.33V0Z"/></g></svg>